<svg width="3099" height="2258" viewBox="0 0 3099 2258" fill="none" xmlns="http://www.w3.org/2000/svg">
<path d="M968.341 1035.09V1070H962.17V1035.09H968.341ZM986.277 1070.51C983.652 1070.51 981.385 1069.97 979.476 1068.88C977.578 1067.77 976.118 1066.22 975.095 1064.2C974.072 1062.18 973.561 1059.8 973.561 1057.06C973.561 1054.37 974.072 1052.01 975.095 1049.97C976.129 1047.93 977.572 1046.34 979.425 1045.2C981.277 1044.05 983.453 1043.48 985.953 1043.48C987.567 1043.48 989.089 1043.74 990.521 1044.26C991.964 1044.77 993.237 1045.57 994.339 1046.65C995.453 1047.73 996.328 1049.1 996.964 1050.77C997.601 1052.43 997.919 1054.41 997.919 1056.7V1058.6H976.459V1054.44H992.004C991.993 1053.26 991.737 1052.2 991.237 1051.28C990.737 1050.35 990.038 1049.62 989.141 1049.09C988.254 1048.55 987.22 1048.28 986.038 1048.28C984.777 1048.28 983.669 1048.59 982.714 1049.2C981.76 1049.81 981.016 1050.6 980.482 1051.59C979.959 1052.57 979.692 1053.64 979.68 1054.81V1058.44C979.68 1059.97 979.959 1061.27 980.516 1062.36C981.072 1063.44 981.851 1064.27 982.851 1064.85C983.851 1065.42 985.021 1065.7 986.362 1065.7C987.26 1065.7 988.072 1065.58 988.8 1065.33C989.527 1065.07 990.158 1064.69 990.692 1064.19C991.226 1063.69 991.629 1063.07 991.902 1062.33L997.663 1062.98C997.3 1064.5 996.607 1065.83 995.584 1066.97C994.572 1068.09 993.277 1068.97 991.697 1069.59C990.118 1070.2 988.311 1070.51 986.277 1070.51ZM1010.67 1070.53C1009.01 1070.53 1007.52 1070.23 1006.19 1069.64C1004.87 1069.04 1003.83 1068.15 1003.05 1066.98C1002.29 1065.81 1001.91 1064.37 1001.91 1062.65C1001.91 1061.18 1002.18 1059.95 1002.73 1058.99C1003.28 1058.02 1004.02 1057.25 1004.96 1056.67C1005.91 1056.09 1006.97 1055.65 1008.15 1055.36C1009.34 1055.05 1010.58 1054.83 1011.85 1054.69C1013.38 1054.53 1014.63 1054.39 1015.58 1054.27C1016.54 1054.13 1017.23 1053.93 1017.66 1053.65C1018.11 1053.37 1018.33 1052.93 1018.33 1052.34V1052.24C1018.33 1050.95 1017.95 1049.96 1017.18 1049.26C1016.42 1048.55 1015.33 1048.2 1013.89 1048.2C1012.38 1048.2 1011.18 1048.53 1010.3 1049.19C1009.42 1049.85 1008.83 1050.62 1008.53 1051.52L1002.76 1050.7C1003.22 1049.11 1003.97 1047.78 1005.01 1046.72C1006.06 1045.64 1007.34 1044.83 1008.85 1044.3C1010.36 1043.75 1012.03 1043.48 1013.86 1043.48C1015.12 1043.48 1016.38 1043.62 1017.63 1043.92C1018.88 1044.22 1020.02 1044.7 1021.05 1045.39C1022.09 1046.06 1022.92 1046.97 1023.54 1048.13C1024.18 1049.29 1024.5 1050.74 1024.5 1052.48V1070H1018.57V1066.4H1018.36C1017.99 1067.13 1017.46 1067.81 1016.78 1068.45C1016.11 1069.07 1015.26 1069.58 1014.24 1069.97C1013.22 1070.34 1012.04 1070.53 1010.67 1070.53ZM1012.28 1065.99C1013.51 1065.99 1014.59 1065.75 1015.5 1065.26C1016.41 1064.76 1017.11 1064.1 1017.59 1063.28C1018.09 1062.47 1018.34 1061.57 1018.34 1060.61V1057.52C1018.15 1057.68 1017.82 1057.83 1017.36 1057.97C1016.9 1058.1 1016.39 1058.22 1015.82 1058.32C1015.25 1058.43 1014.69 1058.52 1014.13 1058.6C1013.58 1058.68 1013.09 1058.74 1012.68 1058.8C1011.76 1058.93 1010.94 1059.13 1010.21 1059.41C1009.49 1059.7 1008.91 1060.1 1008.49 1060.61C1008.07 1061.11 1007.86 1061.76 1007.86 1062.55C1007.86 1063.69 1008.28 1064.55 1009.11 1065.12C1009.93 1065.7 1010.99 1065.99 1012.28 1065.99ZM1030.7 1070V1043.82H1036.68V1048.18H1036.96C1037.43 1046.67 1038.25 1045.51 1039.41 1044.69C1040.58 1043.86 1041.92 1043.44 1043.42 1043.44C1043.76 1043.44 1044.14 1043.46 1044.56 1043.49C1044.99 1043.52 1045.35 1043.56 1045.63 1043.61V1049.29C1045.37 1049.2 1044.96 1049.12 1044.39 1049.05C1043.83 1048.97 1043.29 1048.93 1042.77 1048.93C1041.64 1048.93 1040.63 1049.18 1039.74 1049.66C1038.85 1050.14 1038.15 1050.81 1037.64 1051.66C1037.13 1052.51 1036.87 1053.49 1036.87 1054.61V1070H1030.7ZM1055.9 1054.66V1070H1049.73V1043.82H1055.63V1048.27H1055.94C1056.54 1046.8 1057.5 1045.64 1058.82 1044.77C1060.15 1043.91 1061.79 1043.48 1063.74 1043.48C1065.55 1043.48 1067.13 1043.86 1068.47 1044.64C1069.82 1045.41 1070.86 1046.53 1071.6 1047.99C1072.35 1049.46 1072.72 1051.24 1072.71 1053.33V1070H1066.54V1054.28C1066.54 1052.53 1066.09 1051.16 1065.18 1050.18C1064.28 1049.19 1063.03 1048.69 1061.44 1048.69C1060.36 1048.69 1059.4 1048.93 1058.56 1049.41C1057.73 1049.87 1057.08 1050.55 1056.6 1051.44C1056.14 1052.32 1055.9 1053.4 1055.9 1054.66ZM1090.57 1070.51C1087.95 1070.51 1085.68 1069.97 1083.77 1068.88C1081.88 1067.77 1080.41 1066.22 1079.39 1064.2C1078.37 1062.18 1077.86 1059.8 1077.86 1057.06C1077.86 1054.37 1078.37 1052.01 1079.39 1049.97C1080.43 1047.93 1081.87 1046.34 1083.72 1045.2C1085.57 1044.05 1087.75 1043.48 1090.25 1043.48C1091.86 1043.48 1093.39 1043.74 1094.82 1044.26C1096.26 1044.77 1097.53 1045.57 1098.64 1046.65C1099.75 1047.73 1100.63 1049.1 1101.26 1050.77C1101.9 1052.43 1102.22 1054.41 1102.22 1056.7V1058.6H1080.76V1054.44H1096.3C1096.29 1053.26 1096.03 1052.2 1095.53 1051.28C1095.03 1050.35 1094.34 1049.62 1093.44 1049.09C1092.55 1048.55 1091.52 1048.28 1090.34 1048.28C1089.07 1048.28 1087.97 1048.59 1087.01 1049.2C1086.06 1049.81 1085.31 1050.6 1084.78 1051.59C1084.26 1052.57 1083.99 1053.64 1083.98 1054.81V1058.44C1083.98 1059.97 1084.26 1061.27 1084.81 1062.36C1085.37 1063.44 1086.15 1064.27 1087.15 1064.85C1088.15 1065.42 1089.32 1065.7 1090.66 1065.7C1091.56 1065.7 1092.37 1065.58 1093.1 1065.33C1093.82 1065.07 1094.45 1064.69 1094.99 1064.19C1095.52 1063.69 1095.93 1063.07 1096.2 1062.33L1101.96 1062.98C1101.6 1064.5 1100.9 1065.83 1099.88 1066.97C1098.87 1068.09 1097.57 1068.97 1095.99 1069.59C1094.41 1070.2 1092.61 1070.51 1090.57 1070.51ZM1117.15 1070.46C1115.1 1070.46 1113.25 1069.93 1111.63 1068.88C1110 1067.82 1108.72 1066.28 1107.78 1064.27C1106.83 1062.26 1106.36 1059.82 1106.36 1056.94C1106.36 1054.03 1106.84 1051.58 1107.79 1049.58C1108.76 1047.57 1110.06 1046.05 1111.7 1045.03C1113.33 1043.99 1115.16 1043.48 1117.17 1043.48C1118.7 1043.48 1119.96 1043.74 1120.95 1044.26C1121.94 1044.77 1122.73 1045.39 1123.31 1046.12C1123.88 1046.84 1124.33 1047.51 1124.65 1048.15H1124.91V1035.09H1131.1V1070H1125.03V1065.88H1124.65C1124.33 1066.51 1123.87 1067.19 1123.27 1067.9C1122.67 1068.61 1121.87 1069.21 1120.88 1069.71C1119.9 1070.21 1118.65 1070.46 1117.15 1070.46ZM1118.87 1065.4C1120.18 1065.4 1121.29 1065.05 1122.21 1064.34C1123.13 1063.62 1123.83 1062.63 1124.31 1061.36C1124.79 1060.09 1125.03 1058.6 1125.03 1056.91C1125.03 1055.22 1124.79 1053.74 1124.31 1052.49C1123.85 1051.24 1123.15 1050.27 1122.23 1049.58C1121.32 1048.89 1120.2 1048.54 1118.87 1048.54C1117.5 1048.54 1116.35 1048.9 1115.43 1049.61C1114.51 1050.33 1113.82 1051.32 1113.35 1052.58C1112.88 1053.84 1112.65 1055.28 1112.65 1056.91C1112.65 1058.55 1112.88 1060.01 1113.35 1061.29C1113.83 1062.56 1114.53 1063.57 1115.45 1064.31C1116.38 1065.03 1117.52 1065.4 1118.87 1065.4Z" fill="#686770"/>
<path d="M1461.17 1068V1041.82H1467.15V1046.18H1467.43C1467.9 1044.67 1468.72 1043.51 1469.88 1042.69C1471.05 1041.86 1472.39 1041.44 1473.89 1041.44C1474.23 1041.44 1474.61 1041.46 1475.03 1041.49C1475.46 1041.52 1475.82 1041.56 1476.1 1041.61V1047.29C1475.84 1047.2 1475.43 1047.12 1474.86 1047.05C1474.3 1046.97 1473.76 1046.93 1473.24 1046.93C1472.11 1046.93 1471.1 1047.18 1470.2 1047.66C1469.32 1048.14 1468.62 1048.81 1468.11 1049.66C1467.6 1050.51 1467.34 1051.49 1467.34 1052.61V1068H1461.17ZM1490.71 1068.51C1488.09 1068.51 1485.82 1067.97 1483.91 1066.88C1482.02 1065.77 1480.56 1064.22 1479.53 1062.2C1478.51 1060.18 1478 1057.8 1478 1055.06C1478 1052.37 1478.51 1050.01 1479.53 1047.97C1480.57 1045.93 1482.01 1044.34 1483.86 1043.2C1485.71 1042.05 1487.89 1041.48 1490.39 1041.48C1492 1041.48 1493.53 1041.74 1494.96 1042.26C1496.4 1042.77 1497.67 1043.57 1498.78 1044.65C1499.89 1045.73 1500.77 1047.1 1501.4 1048.77C1502.04 1050.43 1502.36 1052.41 1502.36 1054.7V1056.6H1480.9V1052.44H1496.44C1496.43 1051.26 1496.17 1050.2 1495.67 1049.28C1495.17 1048.35 1494.48 1047.62 1493.58 1047.09C1492.69 1046.55 1491.66 1046.28 1490.48 1046.28C1489.21 1046.28 1488.11 1046.59 1487.15 1047.2C1486.2 1047.81 1485.45 1048.6 1484.92 1049.59C1484.4 1050.57 1484.13 1051.64 1484.12 1052.81V1056.44C1484.12 1057.97 1484.4 1059.27 1484.95 1060.36C1485.51 1061.44 1486.29 1062.27 1487.29 1062.85C1488.29 1063.42 1489.46 1063.7 1490.8 1063.7C1491.7 1063.7 1492.51 1063.58 1493.24 1063.33C1493.96 1063.07 1494.6 1062.69 1495.13 1062.19C1495.66 1061.69 1496.07 1061.07 1496.34 1060.33L1502.1 1060.98C1501.74 1062.5 1501.04 1063.83 1500.02 1064.97C1499.01 1066.09 1497.71 1066.97 1496.13 1067.59C1494.56 1068.2 1492.75 1068.51 1490.71 1068.51ZM1507.58 1068V1041.82H1513.47V1046.27H1513.78C1514.33 1044.77 1515.23 1043.6 1516.49 1042.76C1517.75 1041.9 1519.26 1041.48 1521.01 1041.48C1522.78 1041.48 1524.28 1041.91 1525.49 1042.77C1526.72 1043.62 1527.58 1044.79 1528.08 1046.27H1528.36C1528.93 1044.81 1529.91 1043.65 1531.29 1042.79C1532.67 1041.91 1534.32 1041.48 1536.21 1041.48C1538.62 1041.48 1540.59 1042.24 1542.11 1043.76C1543.63 1045.28 1544.39 1047.51 1544.39 1050.43V1068H1538.21V1051.38C1538.21 1049.76 1537.78 1048.57 1536.91 1047.82C1536.05 1047.06 1534.99 1046.68 1533.74 1046.68C1532.25 1046.68 1531.09 1047.14 1530.25 1048.07C1529.42 1048.99 1529 1050.19 1529 1051.67V1068H1522.95V1051.12C1522.95 1049.77 1522.54 1048.69 1521.72 1047.89C1520.92 1047.08 1519.86 1046.68 1518.55 1046.68C1517.67 1046.68 1516.86 1046.9 1516.13 1047.36C1515.41 1047.8 1514.83 1048.43 1514.39 1049.25C1513.96 1050.06 1513.75 1051 1513.75 1052.08V1068H1507.58ZM1558.19 1068.53C1556.53 1068.53 1555.04 1068.23 1553.71 1067.64C1552.39 1067.04 1551.34 1066.15 1550.57 1064.98C1549.81 1063.81 1549.43 1062.37 1549.43 1060.65C1549.43 1059.18 1549.7 1057.95 1550.25 1056.99C1550.79 1056.02 1551.54 1055.25 1552.48 1054.67C1553.42 1054.09 1554.48 1053.65 1555.67 1053.36C1556.86 1053.05 1558.09 1052.83 1559.37 1052.69C1560.9 1052.53 1562.14 1052.39 1563.1 1052.27C1564.05 1052.13 1564.75 1051.93 1565.18 1051.65C1565.62 1051.37 1565.84 1050.93 1565.84 1050.34V1050.24C1565.84 1048.95 1565.46 1047.96 1564.7 1047.26C1563.94 1046.55 1562.84 1046.2 1561.41 1046.2C1559.9 1046.2 1558.7 1046.53 1557.81 1047.19C1556.94 1047.85 1556.35 1048.62 1556.04 1049.52L1550.28 1048.7C1550.73 1047.11 1551.48 1045.78 1552.53 1044.72C1553.58 1043.64 1554.85 1042.83 1556.37 1042.3C1557.88 1041.75 1559.55 1041.48 1561.38 1041.48C1562.64 1041.48 1563.89 1041.62 1565.14 1041.92C1566.39 1042.22 1567.54 1042.7 1568.57 1043.39C1569.6 1044.06 1570.43 1044.97 1571.06 1046.13C1571.69 1047.29 1572.01 1048.74 1572.01 1050.48V1068H1566.08V1064.4H1565.88C1565.5 1065.13 1564.97 1065.81 1564.29 1066.45C1563.62 1067.07 1562.77 1067.58 1561.75 1067.97C1560.74 1068.34 1559.55 1068.53 1558.19 1068.53ZM1559.79 1063.99C1561.03 1063.99 1562.1 1063.75 1563.01 1063.26C1563.92 1062.76 1564.62 1062.1 1565.11 1061.28C1565.61 1060.47 1565.86 1059.57 1565.86 1058.61V1055.52C1565.67 1055.68 1565.34 1055.83 1564.87 1055.97C1564.42 1056.1 1563.9 1056.22 1563.34 1056.32C1562.77 1056.43 1562.21 1056.52 1561.65 1056.6C1561.09 1056.68 1560.61 1056.74 1560.2 1056.8C1559.28 1056.93 1558.46 1057.13 1557.73 1057.41C1557 1057.7 1556.43 1058.1 1556.01 1058.61C1555.59 1059.11 1555.38 1059.76 1555.38 1060.55C1555.38 1061.69 1555.79 1062.55 1556.62 1063.12C1557.45 1063.7 1558.51 1063.99 1559.79 1063.99ZM1578.22 1068V1041.82H1584.39V1068H1578.22ZM1581.32 1038.1C1580.34 1038.1 1579.5 1037.78 1578.8 1037.13C1578.09 1036.47 1577.74 1035.68 1577.74 1034.76C1577.74 1033.83 1578.09 1033.04 1578.8 1032.39C1579.5 1031.73 1580.34 1031.4 1581.32 1031.4C1582.31 1031.4 1583.15 1031.73 1583.84 1032.39C1584.55 1033.04 1584.9 1033.83 1584.9 1034.76C1584.9 1035.68 1584.55 1036.47 1583.84 1037.13C1583.15 1037.78 1582.31 1038.1 1581.32 1038.1ZM1596.9 1052.66V1068H1590.73V1041.82H1596.63V1046.27H1596.94C1597.54 1044.8 1598.5 1043.64 1599.82 1042.77C1601.15 1041.91 1602.79 1041.48 1604.74 1041.48C1606.55 1041.48 1608.13 1041.86 1609.47 1042.64C1610.82 1043.41 1611.86 1044.53 1612.6 1045.99C1613.35 1047.46 1613.72 1049.24 1613.71 1051.33V1068H1607.54V1052.28C1607.54 1050.53 1607.09 1049.16 1606.18 1048.18C1605.28 1047.19 1604.03 1046.69 1602.44 1046.69C1601.36 1046.69 1600.4 1046.93 1599.56 1047.41C1598.73 1047.87 1598.08 1048.55 1597.6 1049.44C1597.14 1050.32 1596.9 1051.4 1596.9 1052.66ZM1619.98 1068V1041.82H1626.15V1068H1619.98ZM1623.09 1038.1C1622.11 1038.1 1621.27 1037.78 1620.56 1037.13C1619.86 1036.47 1619.51 1035.68 1619.51 1034.76C1619.51 1033.83 1619.86 1033.04 1620.56 1032.39C1621.27 1031.73 1622.11 1031.4 1623.09 1031.4C1624.07 1031.4 1624.91 1031.73 1625.61 1032.39C1626.31 1033.04 1626.66 1033.83 1626.66 1034.76C1626.66 1035.68 1626.31 1036.47 1625.61 1037.13C1624.91 1037.78 1624.07 1038.1 1623.09 1038.1ZM1638.67 1052.66V1068H1632.5V1041.82H1638.4V1046.27H1638.7C1639.31 1044.8 1640.27 1043.64 1641.58 1042.77C1642.91 1041.91 1644.56 1041.48 1646.51 1041.48C1648.32 1041.48 1649.89 1041.86 1651.23 1042.64C1652.58 1043.41 1653.63 1044.53 1654.37 1045.99C1655.12 1047.46 1655.49 1049.24 1655.48 1051.33V1068H1649.31V1052.28C1649.31 1050.53 1648.85 1049.16 1647.94 1048.18C1647.04 1047.19 1645.8 1046.69 1644.21 1046.69C1643.13 1046.69 1642.17 1046.93 1641.33 1047.41C1640.5 1047.87 1639.85 1048.55 1639.37 1049.44C1638.9 1050.32 1638.67 1051.4 1638.67 1052.66ZM1673.13 1078.36C1670.92 1078.36 1669.02 1078.06 1667.42 1077.46C1665.83 1076.87 1664.56 1076.07 1663.59 1075.07C1662.62 1074.07 1661.95 1072.97 1661.58 1071.75L1667.13 1070.4C1667.38 1070.91 1667.75 1071.42 1668.23 1071.92C1668.7 1072.43 1669.35 1072.85 1670.15 1073.18C1670.97 1073.52 1672 1073.69 1673.24 1073.69C1674.99 1073.69 1676.44 1073.27 1677.58 1072.41C1678.73 1071.57 1679.31 1070.19 1679.31 1068.26V1063.3H1679C1678.68 1063.93 1678.21 1064.59 1677.6 1065.26C1677 1065.93 1676.2 1066.49 1675.2 1066.94C1674.21 1067.4 1672.96 1067.62 1671.46 1067.62C1669.45 1067.62 1667.63 1067.15 1665.99 1066.21C1664.37 1065.26 1663.07 1063.84 1662.11 1061.95C1661.15 1060.05 1660.67 1057.68 1660.67 1054.82C1660.67 1051.95 1661.15 1049.52 1662.11 1047.55C1663.07 1045.56 1664.37 1044.05 1666.01 1043.03C1667.65 1041.99 1669.47 1041.48 1671.48 1041.48C1673.02 1041.48 1674.28 1041.74 1675.27 1042.26C1676.27 1042.77 1677.06 1043.39 1677.65 1044.12C1678.24 1044.84 1678.69 1045.51 1679 1046.15H1679.34V1041.82H1685.42V1068.43C1685.42 1070.66 1684.89 1072.52 1683.82 1073.98C1682.75 1075.45 1681.29 1076.55 1679.44 1077.27C1677.59 1078 1675.49 1078.36 1673.13 1078.36ZM1673.19 1062.78C1674.49 1062.78 1675.61 1062.47 1676.53 1061.83C1677.45 1061.19 1678.15 1060.28 1678.62 1059.09C1679.1 1057.89 1679.34 1056.46 1679.34 1054.79C1679.34 1053.14 1679.1 1051.7 1678.62 1050.46C1678.16 1049.22 1677.46 1048.26 1676.54 1047.58C1675.63 1046.89 1674.52 1046.54 1673.19 1046.54C1671.81 1046.54 1670.66 1046.9 1669.74 1047.61C1668.82 1048.33 1668.13 1049.31 1667.66 1050.56C1667.2 1051.8 1666.96 1053.21 1666.96 1054.79C1666.96 1056.39 1667.2 1057.8 1667.66 1059C1668.14 1060.19 1668.84 1061.12 1669.76 1061.8C1670.69 1062.45 1671.83 1062.78 1673.19 1062.78Z" fill="#686770"/>
<g filter="url(#filter0_d_302_915)">
<rect x="768" y="1776" width="695.701" height="372" rx="80" fill="white"/>
</g>
<g filter="url(#filter1_d_302_915)">
<rect x="2290.3" y="1776" width="695.701" height="372" rx="80" fill="white"/>
</g>
<g filter="url(#filter2_d_302_915)">
<rect x="1528.75" y="1776" width="695.701" height="372" rx="80" fill="white"/>
</g>
<g filter="url(#filter3_d_302_915)">
<rect x="768" y="1315" width="686.881" height="283" rx="80" fill="#F2F5FF"/>
<rect x="768" y="1315" width="686.881" height="283" rx="80" fill="white"/>
</g>
<g filter="url(#filter4_d_302_915)">
<rect x="1527.06" y="1315" width="686.881" height="283" rx="80" fill="white"/>
</g>
<g filter="url(#filter5_d_302_915)">
<rect x="2286.12" y="1318" width="686.881" height="283" rx="80" fill="white"/>
</g>
<path d="M818.273 1706.7C814.894 1706.7 811.985 1705.94 809.545 1704.41C807.121 1702.86 805.258 1700.73 803.955 1698.02C802.652 1695.31 802 1692.2 802 1688.7C802 1685.16 802.667 1682.03 804 1679.32C805.333 1676.59 807.212 1674.46 809.636 1672.93C812.061 1671.4 814.917 1670.64 818.205 1670.64C820.856 1670.64 823.22 1671.13 825.295 1672.11C827.371 1673.08 829.045 1674.45 830.318 1676.2C831.606 1677.96 832.371 1680.02 832.614 1682.36H826C825.636 1680.73 824.803 1679.32 823.5 1678.14C822.212 1676.95 820.485 1676.36 818.318 1676.36C816.424 1676.36 814.765 1676.86 813.341 1677.86C811.932 1678.85 810.833 1680.26 810.045 1682.09C809.258 1683.91 808.864 1686.06 808.864 1688.55C808.864 1691.09 809.25 1693.29 810.023 1695.14C810.795 1696.98 811.886 1698.42 813.295 1699.43C814.72 1700.45 816.394 1700.95 818.318 1700.95C819.606 1700.95 820.773 1700.72 821.818 1700.25C822.879 1699.77 823.765 1699.08 824.477 1698.18C825.205 1697.29 825.712 1696.21 826 1694.95H832.614C832.371 1697.21 831.636 1699.23 830.409 1701C829.182 1702.77 827.538 1704.17 825.477 1705.18C823.432 1706.2 821.03 1706.7 818.273 1706.7ZM850.04 1706.77C847.828 1706.77 845.828 1706.36 844.04 1705.55C842.252 1704.71 840.835 1703.51 839.79 1701.93C838.759 1700.36 838.244 1698.42 838.244 1696.14C838.244 1694.17 838.623 1692.55 839.381 1691.27C840.138 1690 841.161 1688.99 842.449 1688.25C843.737 1687.51 845.176 1686.95 846.767 1686.57C848.358 1686.19 849.979 1685.9 851.631 1685.7C853.722 1685.46 855.419 1685.27 856.722 1685.11C858.025 1684.95 858.972 1684.68 859.562 1684.32C860.153 1683.95 860.449 1683.36 860.449 1682.55V1682.39C860.449 1680.4 859.888 1678.86 858.767 1677.77C857.661 1676.68 856.009 1676.14 853.812 1676.14C851.525 1676.14 849.722 1676.64 848.403 1677.66C847.1 1678.66 846.199 1679.77 845.699 1681L839.312 1679.55C840.07 1677.42 841.176 1675.71 842.631 1674.41C844.1 1673.09 845.79 1672.14 847.699 1671.55C849.608 1670.94 851.616 1670.64 853.722 1670.64C855.116 1670.64 856.593 1670.8 858.153 1671.14C859.729 1671.45 861.199 1672.05 862.562 1672.91C863.941 1673.77 865.07 1675.01 865.949 1676.61C866.828 1678.2 867.267 1680.27 867.267 1682.82V1706H860.631V1701.23H860.358C859.919 1702.11 859.259 1702.97 858.381 1703.82C857.502 1704.67 856.373 1705.37 854.994 1705.93C853.616 1706.49 851.964 1706.77 850.04 1706.77ZM851.517 1701.32C853.396 1701.32 855.002 1700.95 856.335 1700.2C857.684 1699.46 858.706 1698.49 859.403 1697.3C860.116 1696.08 860.472 1694.79 860.472 1693.41V1688.91C860.229 1689.15 859.759 1689.38 859.062 1689.59C858.381 1689.79 857.6 1689.96 856.722 1690.11C855.843 1690.25 854.987 1690.38 854.153 1690.5C853.32 1690.61 852.623 1690.7 852.062 1690.77C850.744 1690.94 849.54 1691.22 848.449 1691.61C847.373 1692.01 846.509 1692.58 845.858 1693.32C845.222 1694.05 844.903 1695.02 844.903 1696.23C844.903 1697.91 845.525 1699.18 846.767 1700.05C848.009 1700.89 849.593 1701.32 851.517 1701.32ZM876.318 1706V1671.09H882.886V1676.64H883.25C883.886 1674.76 885.008 1673.28 886.614 1672.2C888.235 1671.11 890.068 1670.57 892.114 1670.57C892.538 1670.57 893.038 1670.58 893.614 1670.61C894.205 1670.64 894.667 1670.68 895 1670.73V1677.23C894.727 1677.15 894.242 1677.07 893.545 1676.98C892.848 1676.87 892.152 1676.82 891.455 1676.82C889.848 1676.82 888.417 1677.16 887.159 1677.84C885.917 1678.51 884.932 1679.44 884.205 1680.64C883.477 1681.82 883.114 1683.17 883.114 1684.68V1706H876.318ZM912.699 1706.68C909.881 1706.68 907.366 1705.96 905.153 1704.52C902.956 1703.07 901.229 1701 899.972 1698.32C898.729 1695.62 898.108 1692.39 898.108 1688.61C898.108 1684.84 898.737 1681.61 899.994 1678.93C901.267 1676.25 903.009 1674.2 905.222 1672.77C907.434 1671.35 909.941 1670.64 912.744 1670.64C914.911 1670.64 916.653 1671 917.972 1671.73C919.305 1672.44 920.335 1673.27 921.062 1674.23C921.805 1675.18 922.381 1676.02 922.79 1676.75H923.199V1659.45H929.994V1706H923.358V1700.57H922.79C922.381 1701.31 921.79 1702.16 921.017 1703.11C920.259 1704.07 919.214 1704.9 917.881 1705.61C916.547 1706.33 914.82 1706.68 912.699 1706.68ZM914.199 1700.89C916.153 1700.89 917.805 1700.37 919.153 1699.34C920.517 1698.3 921.547 1696.85 922.244 1695C922.956 1693.15 923.312 1691 923.312 1688.55C923.312 1686.12 922.964 1684 922.267 1682.18C921.57 1680.36 920.547 1678.95 919.199 1677.93C917.85 1676.92 916.184 1676.41 914.199 1676.41C912.153 1676.41 910.449 1676.94 909.085 1678C907.722 1679.06 906.691 1680.51 905.994 1682.34C905.313 1684.17 904.972 1686.24 904.972 1688.55C904.972 1690.88 905.32 1692.98 906.017 1694.84C906.714 1696.7 907.744 1698.18 909.108 1699.27C910.487 1700.35 912.184 1700.89 914.199 1700.89ZM965.852 1679.61L959.693 1680.7C959.436 1679.92 959.027 1679.17 958.466 1678.45C957.92 1677.74 957.178 1677.16 956.239 1676.7C955.299 1676.25 954.125 1676.02 952.716 1676.02C950.792 1676.02 949.186 1676.45 947.898 1677.32C946.61 1678.17 945.966 1679.27 945.966 1680.61C945.966 1681.78 946.398 1682.72 947.261 1683.43C948.125 1684.14 949.519 1684.73 951.443 1685.18L956.989 1686.45C960.201 1687.2 962.595 1688.34 964.17 1689.89C965.746 1691.43 966.534 1693.44 966.534 1695.91C966.534 1698 965.928 1699.86 964.716 1701.5C963.519 1703.12 961.845 1704.39 959.693 1705.32C957.557 1706.24 955.08 1706.7 952.261 1706.7C948.352 1706.7 945.163 1705.87 942.693 1704.2C940.223 1702.52 938.708 1700.14 938.148 1697.05L944.716 1696.05C945.125 1697.76 945.966 1699.05 947.239 1699.93C948.511 1700.8 950.17 1701.23 952.216 1701.23C954.443 1701.23 956.223 1700.77 957.557 1699.84C958.89 1698.9 959.557 1697.76 959.557 1696.41C959.557 1695.32 959.148 1694.4 958.33 1693.66C957.527 1692.92 956.292 1692.36 954.625 1691.98L948.716 1690.68C945.458 1689.94 943.049 1688.76 941.489 1687.14C939.943 1685.52 939.17 1683.46 939.17 1680.98C939.17 1678.92 939.746 1677.11 940.898 1675.57C942.049 1674.02 943.64 1672.82 945.67 1671.95C947.701 1671.08 950.027 1670.64 952.648 1670.64C956.42 1670.64 959.39 1671.45 961.557 1673.09C963.723 1674.71 965.155 1676.89 965.852 1679.61ZM991.489 1706V1659.45H998.284V1676.75H998.693C999.087 1676.02 999.655 1675.18 1000.4 1674.23C1001.14 1673.27 1002.17 1672.44 1003.49 1671.73C1004.81 1671 1006.55 1670.64 1008.72 1670.64C1011.53 1670.64 1014.05 1671.35 1016.26 1672.77C1018.47 1674.2 1020.21 1676.25 1021.47 1678.93C1022.74 1681.61 1023.38 1684.84 1023.38 1688.61C1023.38 1692.39 1022.75 1695.62 1021.49 1698.32C1020.23 1701 1018.5 1703.07 1016.31 1704.52C1014.11 1705.96 1011.6 1706.68 1008.78 1706.68C1006.66 1706.68 1004.93 1706.33 1003.58 1705.61C1002.25 1704.9 1001.2 1704.07 1000.44 1703.11C999.686 1702.16 999.102 1701.31 998.693 1700.57H998.125V1706H991.489ZM998.148 1688.55C998.148 1691 998.504 1693.15 999.216 1695C999.928 1696.85 1000.96 1698.3 1002.31 1699.34C1003.66 1700.37 1005.31 1700.89 1007.26 1700.89C1009.29 1700.89 1010.99 1700.35 1012.35 1699.27C1013.72 1698.18 1014.75 1696.7 1015.44 1694.84C1016.16 1692.98 1016.51 1690.88 1016.51 1688.55C1016.51 1686.24 1016.16 1684.17 1015.47 1682.34C1014.78 1680.51 1013.75 1679.06 1012.38 1678C1011.01 1676.94 1009.31 1676.41 1007.26 1676.41C1005.29 1676.41 1003.62 1676.92 1002.26 1677.93C1000.91 1678.95 999.89 1680.36 999.193 1682.18C998.496 1684 998.148 1686.12 998.148 1688.55ZM1034.11 1719.09C1033.1 1719.09 1032.17 1719.01 1031.34 1718.84C1030.51 1718.69 1029.89 1718.52 1029.48 1718.34L1031.11 1712.77C1032.36 1713.11 1033.46 1713.25 1034.43 1713.2C1035.4 1713.16 1036.26 1712.8 1037 1712.11C1037.76 1711.43 1038.42 1710.32 1039 1708.77L1039.84 1706.45L1027.07 1671.09H1034.34L1043.18 1698.18H1043.55L1052.39 1671.09H1059.68L1045.3 1710.66C1044.63 1712.48 1043.78 1714.02 1042.75 1715.27C1041.72 1716.55 1040.49 1717.5 1039.07 1718.14C1037.64 1718.77 1035.99 1719.09 1034.11 1719.09Z" fill="#A7A7A7"/>
<path d="M1121.43 1675.75H1111.47C1111.29 1674.46 1110.92 1673.32 1110.36 1672.32C1109.8 1671.3 1109.08 1670.44 1108.2 1669.73C1107.32 1669.02 1106.3 1668.47 1105.15 1668.09C1104.02 1667.71 1102.78 1667.52 1101.45 1667.52C1099.04 1667.52 1096.94 1668.12 1095.15 1669.32C1093.37 1670.5 1091.98 1672.23 1090.99 1674.5C1090.01 1676.76 1089.52 1679.5 1089.52 1682.73C1089.52 1686.05 1090.01 1688.83 1090.99 1691.09C1091.99 1693.35 1093.39 1695.05 1095.18 1696.2C1096.96 1697.36 1099.03 1697.93 1101.38 1697.93C1102.7 1697.93 1103.92 1697.76 1105.04 1697.41C1106.18 1697.06 1107.18 1696.55 1108.06 1695.89C1108.94 1695.2 1109.67 1694.38 1110.24 1693.41C1110.84 1692.44 1111.24 1691.33 1111.47 1690.09L1121.43 1690.14C1121.17 1692.27 1120.52 1694.33 1119.49 1696.32C1118.48 1698.29 1117.11 1700.05 1115.38 1701.61C1113.67 1703.16 1111.62 1704.39 1109.24 1705.3C1106.88 1706.19 1104.21 1706.64 1101.22 1706.64C1097.07 1706.64 1093.36 1705.7 1090.09 1703.82C1086.83 1701.94 1084.25 1699.22 1082.36 1695.66C1080.48 1692.1 1079.54 1687.79 1079.54 1682.73C1079.54 1677.65 1080.49 1673.33 1082.4 1669.77C1084.31 1666.21 1086.9 1663.5 1090.18 1661.64C1093.45 1659.76 1097.13 1658.82 1101.22 1658.82C1103.92 1658.82 1106.42 1659.2 1108.72 1659.95C1111.04 1660.71 1113.09 1661.82 1114.88 1663.27C1116.67 1664.71 1118.12 1666.48 1119.24 1668.57C1120.38 1670.66 1121.11 1673.05 1121.43 1675.75ZM1138.26 1706.66C1136.03 1706.66 1134.04 1706.27 1132.3 1705.5C1130.56 1704.71 1129.18 1703.55 1128.16 1702.02C1127.16 1700.48 1126.66 1698.55 1126.66 1696.25C1126.66 1694.31 1127.02 1692.68 1127.73 1691.36C1128.45 1690.05 1129.41 1688.98 1130.64 1688.18C1131.87 1687.38 1133.26 1686.77 1134.82 1686.36C1136.4 1685.95 1138.05 1685.67 1139.78 1685.5C1141.81 1685.29 1143.45 1685.09 1144.69 1684.91C1145.93 1684.71 1146.83 1684.42 1147.39 1684.05C1147.95 1683.67 1148.23 1683.11 1148.23 1682.36V1682.23C1148.23 1680.79 1147.78 1679.67 1146.87 1678.89C1145.98 1678.1 1144.7 1677.7 1143.05 1677.7C1141.31 1677.7 1139.92 1678.09 1138.89 1678.86C1137.86 1679.62 1137.18 1680.58 1136.85 1681.73L1127.89 1681C1128.35 1678.88 1129.24 1677.05 1130.57 1675.5C1131.91 1673.94 1133.63 1672.74 1135.73 1671.91C1137.85 1671.06 1140.31 1670.64 1143.1 1670.64C1145.04 1670.64 1146.89 1670.86 1148.66 1671.32C1150.45 1671.77 1152.04 1672.48 1153.41 1673.43C1154.81 1674.39 1155.91 1675.61 1156.71 1677.11C1157.51 1678.6 1157.91 1680.38 1157.91 1682.45V1706H1148.73V1701.16H1148.46C1147.9 1702.25 1147.15 1703.21 1146.21 1704.05C1145.27 1704.86 1144.14 1705.51 1142.82 1705.98C1141.51 1706.43 1139.98 1706.66 1138.26 1706.66ZM1141.03 1699.98C1142.45 1699.98 1143.71 1699.7 1144.8 1699.14C1145.89 1698.56 1146.75 1697.79 1147.37 1696.82C1147.99 1695.85 1148.3 1694.75 1148.3 1693.52V1689.82C1148 1690.02 1147.58 1690.2 1147.05 1690.36C1146.54 1690.52 1145.95 1690.66 1145.3 1690.8C1144.65 1690.92 1144 1691.03 1143.35 1691.14C1142.7 1691.23 1142.1 1691.31 1141.57 1691.39C1140.44 1691.55 1139.45 1691.82 1138.6 1692.18C1137.75 1692.55 1137.09 1693.04 1136.62 1693.66C1136.15 1694.27 1135.91 1695.02 1135.91 1695.93C1135.91 1697.25 1136.39 1698.26 1137.35 1698.95C1138.32 1699.64 1139.54 1699.98 1141.03 1699.98ZM1183.99 1671.09V1678.36H1162.97V1671.09H1183.99ZM1167.74 1662.73H1177.43V1695.27C1177.43 1696.17 1177.56 1696.86 1177.84 1697.36C1178.11 1697.85 1178.49 1698.19 1178.97 1698.39C1179.47 1698.58 1180.05 1698.68 1180.7 1698.68C1181.15 1698.68 1181.61 1698.64 1182.06 1698.57C1182.52 1698.48 1182.87 1698.41 1183.11 1698.36L1184.63 1705.57C1184.15 1705.72 1183.46 1705.89 1182.59 1706.09C1181.71 1706.3 1180.64 1706.43 1179.38 1706.48C1177.05 1706.57 1175 1706.26 1173.24 1705.55C1171.5 1704.83 1170.15 1703.73 1169.18 1702.23C1168.21 1700.73 1167.73 1698.83 1167.74 1696.55V1662.73ZM1205.84 1706.68C1202.24 1706.68 1199.15 1705.95 1196.56 1704.5C1193.99 1703.03 1192 1700.95 1190.61 1698.27C1189.21 1695.58 1188.52 1692.39 1188.52 1688.7C1188.52 1685.11 1189.21 1681.96 1190.61 1679.25C1192 1676.54 1193.96 1674.42 1196.49 1672.91C1199.04 1671.39 1202.02 1670.64 1205.45 1670.64C1207.75 1670.64 1209.9 1671.01 1211.88 1671.75C1213.88 1672.48 1215.62 1673.58 1217.11 1675.05C1218.61 1676.52 1219.77 1678.36 1220.61 1680.59C1221.44 1682.8 1221.86 1685.39 1221.86 1688.36V1691.02H1192.38V1685.02H1212.74C1212.74 1683.63 1212.44 1682.39 1211.84 1681.32C1211.23 1680.24 1210.39 1679.4 1209.31 1678.8C1208.25 1678.17 1207.02 1677.86 1205.61 1677.86C1204.14 1677.86 1202.84 1678.2 1201.7 1678.89C1200.58 1679.55 1199.7 1680.45 1199.06 1681.59C1198.43 1682.71 1198.1 1683.96 1198.09 1685.34V1691.05C1198.09 1692.77 1198.4 1694.27 1199.04 1695.52C1199.69 1696.78 1200.61 1697.75 1201.79 1698.43C1202.97 1699.11 1204.37 1699.45 1205.99 1699.45C1207.07 1699.45 1208.05 1699.3 1208.95 1699C1209.84 1698.7 1210.61 1698.24 1211.24 1697.64C1211.88 1697.03 1212.37 1696.29 1212.7 1695.41L1221.65 1696C1221.2 1698.15 1220.27 1700.03 1218.86 1701.64C1217.46 1703.23 1215.66 1704.47 1213.45 1705.36C1211.25 1706.24 1208.71 1706.68 1205.84 1706.68ZM1243.9 1719.82C1240.77 1719.82 1238.08 1719.39 1235.84 1718.52C1233.61 1717.67 1231.84 1716.52 1230.52 1715.05C1229.2 1713.58 1228.34 1711.92 1227.95 1710.09L1236.9 1708.89C1237.18 1709.58 1237.61 1710.23 1238.2 1710.84C1238.79 1711.45 1239.57 1711.93 1240.54 1712.3C1241.52 1712.67 1242.72 1712.86 1244.13 1712.86C1246.24 1712.86 1247.97 1712.35 1249.34 1711.32C1250.71 1710.3 1251.4 1708.6 1251.4 1706.2V1699.82H1250.99C1250.57 1700.79 1249.93 1701.7 1249.09 1702.57C1248.24 1703.43 1247.15 1704.14 1245.81 1704.68C1244.48 1705.23 1242.89 1705.5 1241.04 1705.5C1238.42 1705.5 1236.03 1704.89 1233.88 1703.68C1231.74 1702.45 1230.04 1700.58 1228.77 1698.07C1227.51 1695.54 1226.88 1692.34 1226.88 1688.48C1226.88 1684.52 1227.52 1681.22 1228.81 1678.57C1230.1 1675.92 1231.81 1673.93 1233.95 1672.61C1236.1 1671.3 1238.46 1670.64 1241.02 1670.64C1242.97 1670.64 1244.61 1670.97 1245.93 1671.64C1247.24 1672.29 1248.3 1673.11 1249.11 1674.09C1249.93 1675.06 1250.55 1676.02 1250.99 1676.95H1251.36V1671.09H1260.97V1706.34C1260.97 1709.31 1260.24 1711.8 1258.79 1713.8C1257.34 1715.8 1255.32 1717.3 1252.74 1718.3C1250.18 1719.31 1247.24 1719.82 1243.9 1719.82ZM1244.11 1698.23C1245.67 1698.23 1246.99 1697.84 1248.06 1697.07C1249.15 1696.28 1249.99 1695.16 1250.56 1693.7C1251.15 1692.23 1251.45 1690.48 1251.45 1688.43C1251.45 1686.39 1251.16 1684.61 1250.59 1683.11C1250.01 1681.6 1249.18 1680.42 1248.09 1679.59C1246.99 1678.76 1245.67 1678.34 1244.11 1678.34C1242.52 1678.34 1241.18 1678.77 1240.09 1679.64C1238.99 1680.48 1238.17 1681.67 1237.61 1683.18C1237.05 1684.7 1236.77 1686.45 1236.77 1688.43C1236.77 1690.45 1237.05 1692.19 1237.61 1693.66C1238.18 1695.11 1239.01 1696.24 1240.09 1697.05C1241.18 1697.83 1242.52 1698.23 1244.11 1698.23ZM1284.45 1706.68C1280.92 1706.68 1277.87 1705.93 1275.29 1704.43C1272.73 1702.92 1270.75 1700.81 1269.36 1698.11C1267.96 1695.4 1267.27 1692.26 1267.27 1688.68C1267.27 1685.08 1267.96 1681.92 1269.36 1679.23C1270.75 1676.52 1272.73 1674.41 1275.29 1672.91C1277.87 1671.39 1280.92 1670.64 1284.45 1670.64C1287.98 1670.64 1291.02 1671.39 1293.59 1672.91C1296.16 1674.41 1298.15 1676.52 1299.54 1679.23C1300.93 1681.92 1301.63 1685.08 1301.63 1688.68C1301.63 1692.26 1300.93 1695.4 1299.54 1698.11C1298.15 1700.81 1296.16 1702.92 1293.59 1704.43C1291.02 1705.93 1287.98 1706.68 1284.45 1706.68ZM1284.49 1699.18C1286.1 1699.18 1287.44 1698.73 1288.52 1697.82C1289.59 1696.89 1290.4 1695.64 1290.95 1694.05C1291.51 1692.45 1291.79 1690.64 1291.79 1688.61C1291.79 1686.58 1291.51 1684.77 1290.95 1683.18C1290.4 1681.59 1289.59 1680.33 1288.52 1679.41C1287.44 1678.48 1286.1 1678.02 1284.49 1678.02C1282.87 1678.02 1281.51 1678.48 1280.4 1679.41C1279.31 1680.33 1278.49 1681.59 1277.93 1683.18C1277.38 1684.77 1277.11 1686.58 1277.11 1688.61C1277.11 1690.64 1277.38 1692.45 1277.93 1694.05C1278.49 1695.64 1279.31 1696.89 1280.4 1697.82C1281.51 1698.73 1282.87 1699.18 1284.49 1699.18ZM1307.93 1706V1671.09H1317.31V1677.18H1317.68C1318.31 1675.02 1319.38 1673.38 1320.88 1672.27C1322.38 1671.15 1324.11 1670.59 1326.06 1670.59C1326.55 1670.59 1327.07 1670.62 1327.63 1670.68C1328.19 1670.74 1328.68 1670.83 1329.11 1670.93V1679.52C1328.65 1679.39 1328.02 1679.27 1327.22 1679.16C1326.42 1679.05 1325.68 1679 1325.02 1679C1323.59 1679 1322.32 1679.31 1321.2 1679.93C1320.09 1680.54 1319.21 1681.39 1318.56 1682.48C1317.93 1683.57 1317.61 1684.83 1317.61 1686.25V1706H1307.93ZM1341.15 1719.09C1339.93 1719.09 1338.77 1718.99 1337.7 1718.8C1336.64 1718.61 1335.76 1718.38 1335.06 1718.09L1337.24 1710.86C1338.38 1711.21 1339.4 1711.4 1340.31 1711.43C1341.24 1711.46 1342.03 1711.25 1342.7 1710.8C1343.38 1710.34 1343.93 1709.57 1344.36 1708.48L1344.93 1707L1332.4 1671.09H1342.59L1349.81 1696.73H1350.18L1357.47 1671.09H1367.72L1354.15 1709.77C1353.5 1711.65 1352.62 1713.29 1351.49 1714.68C1350.39 1716.09 1348.99 1717.17 1347.29 1717.93C1345.59 1718.7 1343.55 1719.09 1341.15 1719.09Z" fill="#3F3F3F"/>
<path d="M814.273 1253.7C810.894 1253.7 807.985 1252.94 805.545 1251.41C803.121 1249.86 801.258 1247.73 799.955 1245.02C798.652 1242.31 798 1239.2 798 1235.7C798 1232.16 798.667 1229.03 800 1226.32C801.333 1223.59 803.212 1221.46 805.636 1219.93C808.061 1218.4 810.917 1217.64 814.205 1217.64C816.856 1217.64 819.22 1218.13 821.295 1219.11C823.371 1220.08 825.045 1221.45 826.318 1223.2C827.606 1224.96 828.371 1227.02 828.614 1229.36H822C821.636 1227.73 820.803 1226.32 819.5 1225.14C818.212 1223.95 816.485 1223.36 814.318 1223.36C812.424 1223.36 810.765 1223.86 809.341 1224.86C807.932 1225.85 806.833 1227.26 806.045 1229.09C805.258 1230.91 804.864 1233.06 804.864 1235.55C804.864 1238.09 805.25 1240.29 806.023 1242.14C806.795 1243.98 807.886 1245.42 809.295 1246.43C810.72 1247.45 812.394 1247.95 814.318 1247.95C815.606 1247.95 816.773 1247.72 817.818 1247.25C818.879 1246.77 819.765 1246.08 820.477 1245.18C821.205 1244.29 821.712 1243.21 822 1241.95H828.614C828.371 1244.21 827.636 1246.23 826.409 1248C825.182 1249.77 823.538 1251.17 821.477 1252.18C819.432 1253.2 817.03 1253.7 814.273 1253.7ZM846.04 1253.77C843.828 1253.77 841.828 1253.36 840.04 1252.55C838.252 1251.71 836.835 1250.51 835.79 1248.93C834.759 1247.36 834.244 1245.42 834.244 1243.14C834.244 1241.17 834.623 1239.55 835.381 1238.27C836.138 1237 837.161 1235.99 838.449 1235.25C839.737 1234.51 841.176 1233.95 842.767 1233.57C844.358 1233.19 845.979 1232.9 847.631 1232.7C849.722 1232.46 851.419 1232.27 852.722 1232.11C854.025 1231.95 854.972 1231.68 855.562 1231.32C856.153 1230.95 856.449 1230.36 856.449 1229.55V1229.39C856.449 1227.4 855.888 1225.86 854.767 1224.77C853.661 1223.68 852.009 1223.14 849.812 1223.14C847.525 1223.14 845.722 1223.64 844.403 1224.66C843.1 1225.66 842.199 1226.77 841.699 1228L835.312 1226.55C836.07 1224.42 837.176 1222.71 838.631 1221.41C840.1 1220.09 841.79 1219.14 843.699 1218.55C845.608 1217.94 847.616 1217.64 849.722 1217.64C851.116 1217.64 852.593 1217.8 854.153 1218.14C855.729 1218.45 857.199 1219.05 858.562 1219.91C859.941 1220.77 861.07 1222.01 861.949 1223.61C862.828 1225.2 863.267 1227.27 863.267 1229.82V1253H856.631V1248.23H856.358C855.919 1249.11 855.259 1249.97 854.381 1250.82C853.502 1251.67 852.373 1252.37 850.994 1252.93C849.616 1253.49 847.964 1253.77 846.04 1253.77ZM847.517 1248.32C849.396 1248.32 851.002 1247.95 852.335 1247.2C853.684 1246.46 854.706 1245.49 855.403 1244.3C856.116 1243.08 856.472 1241.79 856.472 1240.41V1235.91C856.229 1236.15 855.759 1236.38 855.062 1236.59C854.381 1236.79 853.6 1236.96 852.722 1237.11C851.843 1237.25 850.987 1237.38 850.153 1237.5C849.32 1237.61 848.623 1237.7 848.062 1237.77C846.744 1237.94 845.54 1238.22 844.449 1238.61C843.373 1239.01 842.509 1239.58 841.858 1240.32C841.222 1241.05 840.903 1242.02 840.903 1243.23C840.903 1244.91 841.525 1246.18 842.767 1247.05C844.009 1247.89 845.593 1248.32 847.517 1248.32ZM872.318 1253V1218.09H878.886V1223.64H879.25C879.886 1221.76 881.008 1220.28 882.614 1219.2C884.235 1218.11 886.068 1217.57 888.114 1217.57C888.538 1217.57 889.038 1217.58 889.614 1217.61C890.205 1217.64 890.667 1217.68 891 1217.73V1224.23C890.727 1224.15 890.242 1224.07 889.545 1223.98C888.848 1223.87 888.152 1223.82 887.455 1223.82C885.848 1223.82 884.417 1224.16 883.159 1224.84C881.917 1225.51 880.932 1226.44 880.205 1227.64C879.477 1228.82 879.114 1230.17 879.114 1231.68V1253H872.318ZM908.699 1253.68C905.881 1253.68 903.366 1252.96 901.153 1251.52C898.956 1250.07 897.229 1248 895.972 1245.32C894.729 1242.62 894.108 1239.39 894.108 1235.61C894.108 1231.84 894.737 1228.61 895.994 1225.93C897.267 1223.25 899.009 1221.2 901.222 1219.77C903.434 1218.35 905.941 1217.64 908.744 1217.64C910.911 1217.64 912.653 1218 913.972 1218.73C915.305 1219.44 916.335 1220.27 917.062 1221.23C917.805 1222.18 918.381 1223.02 918.79 1223.75H919.199V1206.45H925.994V1253H919.358V1247.57H918.79C918.381 1248.31 917.79 1249.16 917.017 1250.11C916.259 1251.07 915.214 1251.9 913.881 1252.61C912.547 1253.33 910.82 1253.68 908.699 1253.68ZM910.199 1247.89C912.153 1247.89 913.805 1247.37 915.153 1246.34C916.517 1245.3 917.547 1243.85 918.244 1242C918.956 1240.15 919.312 1238 919.312 1235.55C919.312 1233.12 918.964 1231 918.267 1229.18C917.57 1227.36 916.547 1225.95 915.199 1224.93C913.85 1223.92 912.184 1223.41 910.199 1223.41C908.153 1223.41 906.449 1223.94 905.085 1225C903.722 1226.06 902.691 1227.51 901.994 1229.34C901.313 1231.17 900.972 1233.24 900.972 1235.55C900.972 1237.88 901.32 1239.98 902.017 1241.84C902.714 1243.7 903.744 1245.18 905.108 1246.27C906.487 1247.35 908.184 1247.89 910.199 1247.89ZM961.852 1226.61L955.693 1227.7C955.436 1226.92 955.027 1226.17 954.466 1225.45C953.92 1224.74 953.178 1224.16 952.239 1223.7C951.299 1223.25 950.125 1223.02 948.716 1223.02C946.792 1223.02 945.186 1223.45 943.898 1224.32C942.61 1225.17 941.966 1226.27 941.966 1227.61C941.966 1228.78 942.398 1229.72 943.261 1230.43C944.125 1231.14 945.519 1231.73 947.443 1232.18L952.989 1233.45C956.201 1234.2 958.595 1235.34 960.17 1236.89C961.746 1238.43 962.534 1240.44 962.534 1242.91C962.534 1245 961.928 1246.86 960.716 1248.5C959.519 1250.12 957.845 1251.39 955.693 1252.32C953.557 1253.24 951.08 1253.7 948.261 1253.7C944.352 1253.7 941.163 1252.87 938.693 1251.2C936.223 1249.52 934.708 1247.14 934.148 1244.05L940.716 1243.05C941.125 1244.76 941.966 1246.05 943.239 1246.93C944.511 1247.8 946.17 1248.23 948.216 1248.23C950.443 1248.23 952.223 1247.77 953.557 1246.84C954.89 1245.9 955.557 1244.76 955.557 1243.41C955.557 1242.32 955.148 1241.4 954.33 1240.66C953.527 1239.92 952.292 1239.36 950.625 1238.98L944.716 1237.68C941.458 1236.94 939.049 1235.76 937.489 1234.14C935.943 1232.52 935.17 1230.46 935.17 1227.98C935.17 1225.92 935.746 1224.11 936.898 1222.57C938.049 1221.02 939.64 1219.82 941.67 1218.95C943.701 1218.08 946.027 1217.64 948.648 1217.64C952.42 1217.64 955.39 1218.45 957.557 1220.09C959.723 1221.71 961.155 1223.89 961.852 1226.61ZM987.489 1253V1206.45H994.284V1223.75H994.693C995.087 1223.02 995.655 1222.18 996.398 1221.23C997.14 1220.27 998.17 1219.44 999.489 1218.73C1000.81 1218 1002.55 1217.64 1004.72 1217.64C1007.53 1217.64 1010.05 1218.35 1012.26 1219.77C1014.47 1221.2 1016.21 1223.25 1017.47 1225.93C1018.74 1228.61 1019.38 1231.84 1019.38 1235.61C1019.38 1239.39 1018.75 1242.62 1017.49 1245.32C1016.23 1248 1014.5 1250.07 1012.31 1251.52C1010.11 1252.96 1007.6 1253.68 1004.78 1253.68C1002.66 1253.68 1000.93 1253.33 999.58 1252.61C998.246 1251.9 997.201 1251.07 996.443 1250.11C995.686 1249.16 995.102 1248.31 994.693 1247.57H994.125V1253H987.489ZM994.148 1235.55C994.148 1238 994.504 1240.15 995.216 1242C995.928 1243.85 996.958 1245.3 998.307 1246.34C999.655 1247.37 1001.31 1247.89 1003.26 1247.89C1005.29 1247.89 1006.99 1247.35 1008.35 1246.27C1009.72 1245.18 1010.75 1243.7 1011.44 1241.84C1012.16 1239.98 1012.51 1237.88 1012.51 1235.55C1012.51 1233.24 1012.16 1231.17 1011.47 1229.34C1010.78 1227.51 1009.75 1226.06 1008.38 1225C1007.01 1223.94 1005.31 1223.41 1003.26 1223.41C1001.29 1223.41 999.625 1223.92 998.261 1224.93C996.913 1225.95 995.89 1227.36 995.193 1229.18C994.496 1231 994.148 1233.12 994.148 1235.55ZM1030.11 1266.09C1029.1 1266.09 1028.17 1266.01 1027.34 1265.84C1026.51 1265.69 1025.89 1265.52 1025.48 1265.34L1027.11 1259.77C1028.36 1260.11 1029.46 1260.25 1030.43 1260.2C1031.4 1260.16 1032.26 1259.8 1033 1259.11C1033.76 1258.43 1034.42 1257.32 1035 1255.77L1035.84 1253.45L1023.07 1218.09H1030.34L1039.18 1245.18H1039.55L1048.39 1218.09H1055.68L1041.3 1257.66C1040.63 1259.48 1039.78 1261.02 1038.75 1262.27C1037.72 1263.55 1036.49 1264.5 1035.07 1265.14C1033.64 1265.77 1031.99 1266.09 1030.11 1266.09Z" fill="#B5C4CA"/>
<path d="M1076.36 1253V1206.45H1086.2V1244.89H1106.15V1253H1076.36ZM1128.4 1253.68C1124.81 1253.68 1121.72 1252.95 1119.12 1251.5C1116.55 1250.03 1114.56 1247.95 1113.17 1245.27C1111.78 1242.58 1111.08 1239.39 1111.08 1235.7C1111.08 1232.11 1111.78 1228.96 1113.17 1226.25C1114.56 1223.54 1116.53 1221.42 1119.06 1219.91C1121.6 1218.39 1124.59 1217.64 1128.01 1217.64C1130.31 1217.64 1132.46 1218.01 1134.44 1218.75C1136.44 1219.48 1138.19 1220.58 1139.67 1222.05C1141.17 1223.52 1142.34 1225.36 1143.17 1227.59C1144 1229.8 1144.42 1232.39 1144.42 1235.36V1238.02H1114.94V1232.02H1135.31C1135.31 1230.63 1135 1229.39 1134.4 1228.32C1133.79 1227.24 1132.95 1226.4 1131.88 1225.8C1130.81 1225.17 1129.58 1224.86 1128.17 1224.86C1126.7 1224.86 1125.4 1225.2 1124.26 1225.89C1123.14 1226.55 1122.26 1227.45 1121.62 1228.59C1120.99 1229.71 1120.66 1230.96 1120.65 1232.34V1238.05C1120.65 1239.77 1120.97 1241.27 1121.6 1242.52C1122.25 1243.78 1123.17 1244.75 1124.35 1245.43C1125.53 1246.11 1126.94 1246.45 1128.56 1246.45C1129.63 1246.45 1130.62 1246.3 1131.51 1246C1132.41 1245.7 1133.17 1245.24 1133.81 1244.64C1134.44 1244.03 1134.93 1243.29 1135.26 1242.41L1144.22 1243C1143.76 1245.15 1142.83 1247.03 1141.42 1248.64C1140.03 1250.23 1138.22 1251.47 1136.01 1252.36C1133.81 1253.24 1131.28 1253.68 1128.4 1253.68ZM1182.35 1218.09L1170.14 1253H1159.23L1147.03 1218.09H1157.26L1164.51 1243.07H1164.87L1172.1 1218.09H1182.35ZM1202.09 1253.68C1198.49 1253.68 1195.4 1252.95 1192.81 1251.5C1190.24 1250.03 1188.25 1247.95 1186.86 1245.27C1185.46 1242.58 1184.77 1239.39 1184.77 1235.7C1184.77 1232.11 1185.46 1228.96 1186.86 1226.25C1188.25 1223.54 1190.21 1221.42 1192.74 1219.91C1195.29 1218.39 1198.27 1217.64 1201.7 1217.64C1204 1217.64 1206.15 1218.01 1208.13 1218.75C1210.13 1219.48 1211.87 1220.58 1213.36 1222.05C1214.86 1223.52 1216.02 1225.36 1216.86 1227.59C1217.69 1229.8 1218.11 1232.39 1218.11 1235.36V1238.02H1188.63V1232.02H1208.99C1208.99 1230.63 1208.69 1229.39 1208.09 1228.32C1207.48 1227.24 1206.64 1226.4 1205.56 1225.8C1204.5 1225.17 1203.27 1224.86 1201.86 1224.86C1200.39 1224.86 1199.09 1225.2 1197.95 1225.89C1196.83 1226.55 1195.95 1227.45 1195.31 1228.59C1194.68 1229.71 1194.35 1230.96 1194.34 1232.34V1238.05C1194.34 1239.77 1194.65 1241.27 1195.29 1242.52C1195.94 1243.78 1196.86 1244.75 1198.04 1245.43C1199.22 1246.11 1200.62 1246.45 1202.24 1246.45C1203.32 1246.45 1204.3 1246.3 1205.2 1246C1206.09 1245.7 1206.86 1245.24 1207.49 1244.64C1208.13 1244.03 1208.62 1243.29 1208.95 1242.41L1217.9 1243C1217.45 1245.15 1216.52 1247.03 1215.11 1248.64C1213.71 1250.23 1211.91 1251.47 1209.7 1252.36C1207.5 1253.24 1204.96 1253.68 1202.09 1253.68ZM1234.11 1206.45V1253H1224.43V1206.45H1234.11Z" fill="#3F3F3F"/>
<path d="M815.545 348H799.045V301.455H815.682C820.364 301.455 824.394 302.386 827.773 304.25C831.152 306.098 833.75 308.758 835.568 312.227C837.402 315.697 838.318 319.848 838.318 324.682C838.318 329.53 837.402 333.697 835.568 337.182C833.75 340.667 831.136 343.341 827.727 345.205C824.333 347.068 820.273 348 815.545 348ZM808.886 339.568H815.136C818.045 339.568 820.492 339.053 822.477 338.023C824.477 336.977 825.977 335.364 826.977 333.182C827.992 330.985 828.5 328.152 828.5 324.682C828.5 321.242 827.992 318.432 826.977 316.25C825.977 314.068 824.485 312.462 822.5 311.432C820.515 310.402 818.068 309.886 815.159 309.886H808.886V339.568ZM855.381 348.659C853.153 348.659 851.169 348.273 849.426 347.5C847.684 346.712 846.305 345.553 845.29 344.023C844.29 342.477 843.79 340.553 843.79 338.25C843.79 336.311 844.146 334.682 844.858 333.364C845.57 332.045 846.54 330.985 847.767 330.182C848.994 329.379 850.388 328.773 851.949 328.364C853.525 327.955 855.176 327.667 856.903 327.5C858.934 327.288 860.57 327.091 861.812 326.909C863.055 326.712 863.956 326.424 864.517 326.045C865.078 325.667 865.358 325.106 865.358 324.364V324.227C865.358 322.788 864.903 321.674 863.994 320.886C863.1 320.098 861.828 319.705 860.176 319.705C858.434 319.705 857.047 320.091 856.017 320.864C854.987 321.621 854.305 322.576 853.972 323.727L845.017 323C845.472 320.879 846.366 319.045 847.699 317.5C849.032 315.939 850.752 314.742 852.858 313.909C854.979 313.061 857.434 312.636 860.222 312.636C862.161 312.636 864.017 312.864 865.79 313.318C867.578 313.773 869.161 314.477 870.54 315.432C871.934 316.386 873.032 317.614 873.835 319.114C874.638 320.598 875.04 322.379 875.04 324.455V348H865.858V343.159H865.585C865.025 344.25 864.275 345.212 863.335 346.045C862.396 346.864 861.267 347.508 859.949 347.977C858.631 348.432 857.108 348.659 855.381 348.659ZM858.153 341.977C859.578 341.977 860.835 341.697 861.926 341.136C863.017 340.561 863.873 339.788 864.494 338.818C865.116 337.848 865.426 336.75 865.426 335.523V331.818C865.123 332.015 864.706 332.197 864.176 332.364C863.661 332.515 863.078 332.659 862.426 332.795C861.775 332.917 861.123 333.03 860.472 333.136C859.82 333.227 859.229 333.311 858.699 333.386C857.563 333.553 856.57 333.818 855.722 334.182C854.873 334.545 854.214 335.038 853.744 335.659C853.275 336.265 853.04 337.023 853.04 337.932C853.04 339.25 853.517 340.258 854.472 340.955C855.441 341.636 856.669 341.977 858.153 341.977ZM911.597 323.045L902.733 323.591C902.581 322.833 902.256 322.152 901.756 321.545C901.256 320.924 900.597 320.432 899.778 320.068C898.975 319.689 898.013 319.5 896.892 319.5C895.392 319.5 894.127 319.818 893.097 320.455C892.066 321.076 891.551 321.909 891.551 322.955C891.551 323.788 891.884 324.492 892.551 325.068C893.218 325.644 894.362 326.106 895.983 326.455L902.301 327.727C905.695 328.424 908.225 329.545 909.892 331.091C911.559 332.636 912.392 334.667 912.392 337.182C912.392 339.47 911.718 341.477 910.369 343.205C909.036 344.932 907.203 346.28 904.869 347.25C902.551 348.205 899.877 348.682 896.847 348.682C892.225 348.682 888.544 347.72 885.801 345.795C883.074 343.856 881.475 341.22 881.006 337.886L890.528 337.386C890.816 338.795 891.513 339.871 892.619 340.614C893.725 341.341 895.142 341.705 896.869 341.705C898.566 341.705 899.93 341.379 900.96 340.727C902.006 340.061 902.536 339.205 902.551 338.159C902.536 337.28 902.165 336.561 901.438 336C900.71 335.424 899.589 334.985 898.074 334.682L892.028 333.477C888.619 332.795 886.081 331.614 884.415 329.932C882.763 328.25 881.938 326.106 881.938 323.5C881.938 321.258 882.544 319.326 883.756 317.705C884.983 316.083 886.703 314.833 888.915 313.955C891.142 313.076 893.748 312.636 896.733 312.636C901.142 312.636 904.612 313.568 907.142 315.432C909.688 317.295 911.172 319.833 911.597 323.045ZM928.17 327.818V348H918.489V301.455H927.898V319.25H928.307C929.095 317.189 930.367 315.576 932.125 314.409C933.883 313.227 936.087 312.636 938.739 312.636C941.163 312.636 943.277 313.167 945.08 314.227C946.898 315.273 948.307 316.78 949.307 318.75C950.322 320.705 950.822 323.045 950.807 325.773V348H941.125V327.5C941.14 325.348 940.595 323.674 939.489 322.477C938.398 321.28 936.867 320.682 934.898 320.682C933.58 320.682 932.413 320.962 931.398 321.523C930.398 322.083 929.61 322.902 929.034 323.977C928.473 325.038 928.186 326.318 928.17 327.818ZM958.608 348V301.455H968.29V318.955H968.585C969.009 318.015 969.623 317.061 970.426 316.091C971.244 315.106 972.305 314.288 973.608 313.636C974.926 312.97 976.563 312.636 978.517 312.636C981.063 312.636 983.411 313.303 985.562 314.636C987.714 315.955 989.434 317.947 990.722 320.614C992.009 323.265 992.653 326.591 992.653 330.591C992.653 334.485 992.025 337.773 990.767 340.455C989.525 343.121 987.828 345.144 985.676 346.523C983.54 347.886 981.146 348.568 978.494 348.568C976.616 348.568 975.017 348.258 973.699 347.636C972.396 347.015 971.328 346.235 970.494 345.295C969.661 344.341 969.025 343.379 968.585 342.409H968.153V348H958.608ZM968.085 330.545C968.085 332.621 968.373 334.432 968.949 335.977C969.525 337.523 970.358 338.727 971.449 339.591C972.54 340.439 973.866 340.864 975.426 340.864C977.002 340.864 978.335 340.432 979.426 339.568C980.517 338.689 981.343 337.477 981.903 335.932C982.479 334.371 982.767 332.576 982.767 330.545C982.767 328.53 982.487 326.758 981.926 325.227C981.366 323.697 980.54 322.5 979.449 321.636C978.358 320.773 977.017 320.341 975.426 320.341C973.85 320.341 972.517 320.758 971.426 321.591C970.35 322.424 969.525 323.606 968.949 325.136C968.373 326.667 968.085 328.47 968.085 330.545ZM1014.89 348.682C1011.36 348.682 1008.3 347.932 1005.73 346.432C1003.17 344.917 1001.19 342.811 999.795 340.114C998.402 337.402 997.705 334.258 997.705 330.682C997.705 327.076 998.402 323.924 999.795 321.227C1001.19 318.515 1003.17 316.409 1005.73 314.909C1008.3 313.394 1011.36 312.636 1014.89 312.636C1018.42 312.636 1021.46 313.394 1024.02 314.909C1026.6 316.409 1028.58 318.515 1029.98 321.227C1031.37 323.924 1032.07 327.076 1032.07 330.682C1032.07 334.258 1031.37 337.402 1029.98 340.114C1028.58 342.811 1026.6 344.917 1024.02 346.432C1021.46 347.932 1018.42 348.682 1014.89 348.682ZM1014.93 341.182C1016.54 341.182 1017.88 340.727 1018.95 339.818C1020.03 338.894 1020.84 337.636 1021.39 336.045C1021.95 334.455 1022.23 332.644 1022.23 330.614C1022.23 328.583 1021.95 326.773 1021.39 325.182C1020.84 323.591 1020.03 322.333 1018.95 321.409C1017.88 320.485 1016.54 320.023 1014.93 320.023C1013.31 320.023 1011.95 320.485 1010.84 321.409C1009.75 322.333 1008.92 323.591 1008.36 325.182C1007.82 326.773 1007.55 328.583 1007.55 330.614C1007.55 332.644 1007.82 334.455 1008.36 336.045C1008.92 337.636 1009.75 338.894 1010.84 339.818C1011.95 340.727 1013.31 341.182 1014.93 341.182ZM1048.32 348.659C1046.09 348.659 1044.11 348.273 1042.36 347.5C1040.62 346.712 1039.24 345.553 1038.23 344.023C1037.23 342.477 1036.73 340.553 1036.73 338.25C1036.73 336.311 1037.08 334.682 1037.8 333.364C1038.51 332.045 1039.48 330.985 1040.7 330.182C1041.93 329.379 1043.33 328.773 1044.89 328.364C1046.46 327.955 1048.11 327.667 1049.84 327.5C1051.87 327.288 1053.51 327.091 1054.75 326.909C1055.99 326.712 1056.89 326.424 1057.45 326.045C1058.02 325.667 1058.3 325.106 1058.3 324.364V324.227C1058.3 322.788 1057.84 321.674 1056.93 320.886C1056.04 320.098 1054.77 319.705 1053.11 319.705C1051.37 319.705 1049.98 320.091 1048.95 320.864C1047.92 321.621 1047.24 322.576 1046.91 323.727L1037.95 323C1038.41 320.879 1039.3 319.045 1040.64 317.5C1041.97 315.939 1043.69 314.742 1045.8 313.909C1047.92 313.061 1050.37 312.636 1053.16 312.636C1055.1 312.636 1056.95 312.864 1058.73 313.318C1060.52 313.773 1062.1 314.477 1063.48 315.432C1064.87 316.386 1065.97 317.614 1066.77 319.114C1067.58 320.598 1067.98 322.379 1067.98 324.455V348H1058.8V343.159H1058.52C1057.96 344.25 1057.21 345.212 1056.27 346.045C1055.33 346.864 1054.2 347.508 1052.89 347.977C1051.57 348.432 1050.05 348.659 1048.32 348.659ZM1051.09 341.977C1052.52 341.977 1053.77 341.697 1054.86 341.136C1055.95 340.561 1056.81 339.788 1057.43 338.818C1058.05 337.848 1058.36 336.75 1058.36 335.523V331.818C1058.06 332.015 1057.64 332.197 1057.11 332.364C1056.6 332.515 1056.02 332.659 1055.36 332.795C1054.71 332.917 1054.06 333.03 1053.41 333.136C1052.76 333.227 1052.17 333.311 1051.64 333.386C1050.5 333.553 1049.51 333.818 1048.66 334.182C1047.81 334.545 1047.15 335.038 1046.68 335.659C1046.21 336.265 1045.98 337.023 1045.98 337.932C1045.98 339.25 1046.45 340.258 1047.41 340.955C1048.38 341.636 1049.61 341.977 1051.09 341.977ZM1075.49 348V313.091H1084.88V319.182H1085.24C1085.88 317.015 1086.94 315.379 1088.44 314.273C1089.94 313.152 1091.67 312.591 1093.62 312.591C1094.11 312.591 1094.63 312.621 1095.19 312.682C1095.75 312.742 1096.25 312.826 1096.67 312.932V321.523C1096.22 321.386 1095.59 321.265 1094.78 321.159C1093.98 321.053 1093.25 321 1092.58 321C1091.16 321 1089.88 321.311 1088.76 321.932C1087.66 322.538 1086.78 323.386 1086.12 324.477C1085.49 325.568 1085.17 326.826 1085.17 328.25V348H1075.49ZM1112.91 348.568C1110.26 348.568 1107.86 347.886 1105.71 346.523C1103.57 345.144 1101.88 343.121 1100.62 340.455C1099.38 337.773 1098.76 334.485 1098.76 330.591C1098.76 326.591 1099.4 323.265 1100.69 320.614C1101.98 317.947 1103.69 315.955 1105.82 314.636C1107.98 313.303 1110.33 312.636 1112.89 312.636C1114.85 312.636 1116.48 312.97 1117.78 313.636C1119.1 314.288 1120.16 315.106 1120.96 316.091C1121.78 317.061 1122.4 318.015 1122.82 318.955H1123.12V301.455H1132.78V348H1123.23V342.409H1122.82C1122.37 343.379 1121.73 344.341 1120.89 345.295C1120.07 346.235 1119.01 347.015 1117.69 347.636C1116.38 348.258 1114.79 348.568 1112.91 348.568ZM1115.98 340.864C1117.54 340.864 1118.86 340.439 1119.94 339.591C1121.03 338.727 1121.86 337.523 1122.44 335.977C1123.03 334.432 1123.32 332.621 1123.32 330.545C1123.32 328.47 1123.04 326.667 1122.46 325.136C1121.88 323.606 1121.05 322.424 1119.96 321.591C1118.87 320.758 1117.54 320.341 1115.98 320.341C1114.39 320.341 1113.05 320.773 1111.96 321.636C1110.87 322.5 1110.04 323.697 1109.48 325.227C1108.92 326.758 1108.64 328.53 1108.64 330.545C1108.64 332.576 1108.92 334.371 1109.48 335.932C1110.06 337.477 1110.88 338.689 1111.96 339.568C1113.05 340.432 1114.39 340.864 1115.98 340.864Z" fill="#3F3F3F"/>
<g filter="url(#filter6_d_302_915)">
<rect x="768" y="410" width="2204.58" height="723" rx="80" fill="white"/>
</g>
<g filter="url(#filter7_d_302_915)">
<path d="M27 109C27 64.8172 62.8172 29 107 29H2992C3036.18 29 3072 64.8172 3072 109V239H27V109Z" fill="white"/>
</g>
<mask id="path-14-inside-1_302_915" fill="white">
<path d="M451.701 782.966C454.829 777.92 462.171 777.921 465.299 782.966L472.539 794.644C473.176 795.672 472.437 797 471.227 797V797C470.693 797 470.196 796.723 469.915 796.268L465.305 788.809C462.179 783.75 454.821 783.75 451.695 788.809L447.085 796.268C446.804 796.723 446.307 797 445.773 797V797C444.563 797 443.824 795.672 444.461 794.644L451.701 782.966Z"/>
</mask>
<path d="M451.701 782.966C454.829 777.92 462.171 777.921 465.299 782.966L472.539 794.644C473.176 795.672 472.437 797 471.227 797V797C470.693 797 470.196 796.723 469.915 796.268L465.305 788.809C462.179 783.75 454.821 783.75 451.695 788.809L447.085 796.268C446.804 796.723 446.307 797 445.773 797V797C444.563 797 443.824 795.672 444.461 794.644L451.701 782.966Z" fill="#ABD7F0"/>
<path d="M469.915 796.268L463.96 799.948L469.915 796.268ZM447.085 796.268L441.131 792.588L447.085 796.268ZM472.539 794.644L478.488 790.955L472.539 794.644ZM451.701 782.966L445.751 779.278L451.701 782.966ZM459.35 786.655L466.59 798.332L478.488 790.955L471.249 779.278L459.35 786.655ZM450.41 798.332L457.65 786.655L445.751 779.278L438.512 790.955L450.41 798.332ZM445.74 785.129L441.131 792.588L453.04 799.948L457.649 792.489L445.74 785.129ZM475.869 792.588L471.26 785.129L459.351 792.489L463.96 799.948L475.869 792.588ZM471.227 790C473.119 790 474.875 790.979 475.869 792.588L463.96 799.948C465.517 802.467 468.266 804 471.227 804V790ZM441.131 792.588C442.125 790.979 443.881 790 445.773 790V804C448.734 804 451.483 802.467 453.04 799.948L441.131 792.588ZM457.649 792.489C458.04 791.857 458.96 791.857 459.351 792.489L471.26 785.129C465.398 775.643 451.602 775.643 445.74 785.129L457.649 792.489ZM438.512 790.955C434.983 796.646 439.076 804 445.773 804V790C450.05 790 452.664 794.697 450.41 798.332L438.512 790.955ZM466.59 798.332C464.336 794.697 466.95 790 471.227 790V804C477.924 804 482.017 796.646 478.488 790.955L466.59 798.332ZM471.249 779.278C465.383 769.817 451.617 769.817 445.751 779.278L457.65 786.655C458.041 786.024 458.959 786.024 459.35 786.655L471.249 779.278Z" fill="#7A7D7E" mask="url(#path-14-inside-1_302_915)"/>
<g filter="url(#filter8_d_302_915)">
<path d="M27 109C27 64.8173 62.8172 29 107 29H687V2227H107C62.8172 2227 27 2191.18 27 2147V109Z" fill="white"/>
</g>
<rect x="27" y="390" width="659" height="5" fill="#E8E8ED"/>
<rect x="646" y="869" width="26" height="600" rx="13" fill="#F0F0F0"/>
<defs>
<filter id="filter0_d_302_915" x="718" y="1747" width="797.701" height="474" filterUnits="userSpaceOnUse" color-interpolation-filters="sRGB">
<feFlood flood-opacity="0" result="BackgroundImageFix"/>
<feColorMatrix in="SourceAlpha" type="matrix" values="0 0 0 0 0 0 0 0 0 0 0 0 0 0 0 0 0 0 127 0" result="hardAlpha"/>
<feOffset dx="1" dy="22"/>
<feGaussianBlur stdDeviation="25.5"/>
<feComposite in2="hardAlpha" operator="out"/>
<feColorMatrix type="matrix" values="0 0 0 0 0.516565 0 0 0 0 0.516565 0 0 0 0 0.516565 0 0 0 0.15 0"/>
<feBlend mode="normal" in2="BackgroundImageFix" result="effect1_dropShadow_302_915"/>
<feBlend mode="normal" in="SourceGraphic" in2="effect1_dropShadow_302_915" result="shape"/>
</filter>
<filter id="filter1_d_302_915" x="2240.3" y="1747" width="797.701" height="474" filterUnits="userSpaceOnUse" color-interpolation-filters="sRGB">
<feFlood flood-opacity="0" result="BackgroundImageFix"/>
<feColorMatrix in="SourceAlpha" type="matrix" values="0 0 0 0 0 0 0 0 0 0 0 0 0 0 0 0 0 0 127 0" result="hardAlpha"/>
<feOffset dx="1" dy="22"/>
<feGaussianBlur stdDeviation="25.5"/>
<feComposite in2="hardAlpha" operator="out"/>
<feColorMatrix type="matrix" values="0 0 0 0 0.516565 0 0 0 0 0.516565 0 0 0 0 0.516565 0 0 0 0.15 0"/>
<feBlend mode="normal" in2="BackgroundImageFix" result="effect1_dropShadow_302_915"/>
<feBlend mode="normal" in="SourceGraphic" in2="effect1_dropShadow_302_915" result="shape"/>
</filter>
<filter id="filter2_d_302_915" x="1478.75" y="1747" width="797.701" height="474" filterUnits="userSpaceOnUse" color-interpolation-filters="sRGB">
<feFlood flood-opacity="0" result="BackgroundImageFix"/>
<feColorMatrix in="SourceAlpha" type="matrix" values="0 0 0 0 0 0 0 0 0 0 0 0 0 0 0 0 0 0 127 0" result="hardAlpha"/>
<feOffset dx="1" dy="22"/>
<feGaussianBlur stdDeviation="25.5"/>
<feComposite in2="hardAlpha" operator="out"/>
<feColorMatrix type="matrix" values="0 0 0 0 0.516565 0 0 0 0 0.516565 0 0 0 0 0.516565 0 0 0 0.15 0"/>
<feBlend mode="normal" in2="BackgroundImageFix" result="effect1_dropShadow_302_915"/>
<feBlend mode="normal" in="SourceGraphic" in2="effect1_dropShadow_302_915" result="shape"/>
</filter>
<filter id="filter3_d_302_915" x="764" y="1315" width="694.881" height="291" filterUnits="userSpaceOnUse" color-interpolation-filters="sRGB">
<feFlood flood-opacity="0" result="BackgroundImageFix"/>
<feColorMatrix in="SourceAlpha" type="matrix" values="0 0 0 0 0 0 0 0 0 0 0 0 0 0 0 0 0 0 127 0" result="hardAlpha"/>
<feOffset dy="4"/>
<feGaussianBlur stdDeviation="2"/>
<feComposite in2="hardAlpha" operator="out"/>
<feColorMatrix type="matrix" values="0 0 0 0 0.837274 0 0 0 0 0.86471 0 0 0 0 0.870732 0 0 0 0.25 0"/>
<feBlend mode="normal" in2="BackgroundImageFix" result="effect1_dropShadow_302_915"/>
<feBlend mode="normal" in="SourceGraphic" in2="effect1_dropShadow_302_915" result="shape"/>
</filter>
<filter id="filter4_d_302_915" x="1523.06" y="1315" width="694.881" height="291" filterUnits="userSpaceOnUse" color-interpolation-filters="sRGB">
<feFlood flood-opacity="0" result="BackgroundImageFix"/>
<feColorMatrix in="SourceAlpha" type="matrix" values="0 0 0 0 0 0 0 0 0 0 0 0 0 0 0 0 0 0 127 0" result="hardAlpha"/>
<feOffset dy="4"/>
<feGaussianBlur stdDeviation="2"/>
<feComposite in2="hardAlpha" operator="out"/>
<feColorMatrix type="matrix" values="0 0 0 0 0.837274 0 0 0 0 0.86471 0 0 0 0 0.870732 0 0 0 0.25 0"/>
<feBlend mode="normal" in2="BackgroundImageFix" result="effect1_dropShadow_302_915"/>
<feBlend mode="normal" in="SourceGraphic" in2="effect1_dropShadow_302_915" result="shape"/>
</filter>
<filter id="filter5_d_302_915" x="2282.12" y="1318" width="694.881" height="291" filterUnits="userSpaceOnUse" color-interpolation-filters="sRGB">
<feFlood flood-opacity="0" result="BackgroundImageFix"/>
<feColorMatrix in="SourceAlpha" type="matrix" values="0 0 0 0 0 0 0 0 0 0 0 0 0 0 0 0 0 0 127 0" result="hardAlpha"/>
<feOffset dy="4"/>
<feGaussianBlur stdDeviation="2"/>
<feComposite in2="hardAlpha" operator="out"/>
<feColorMatrix type="matrix" values="0 0 0 0 0.837274 0 0 0 0 0.86471 0 0 0 0 0.870732 0 0 0 0.25 0"/>
<feBlend mode="normal" in2="BackgroundImageFix" result="effect1_dropShadow_302_915"/>
<feBlend mode="normal" in="SourceGraphic" in2="effect1_dropShadow_302_915" result="shape"/>
</filter>
<filter id="filter6_d_302_915" x="761" y="407" width="2218.58" height="737" filterUnits="userSpaceOnUse" color-interpolation-filters="sRGB">
<feFlood flood-opacity="0" result="BackgroundImageFix"/>
<feColorMatrix in="SourceAlpha" type="matrix" values="0 0 0 0 0 0 0 0 0 0 0 0 0 0 0 0 0 0 127 0" result="hardAlpha"/>
<feOffset dy="4"/>
<feGaussianBlur stdDeviation="3.5"/>
<feComposite in2="hardAlpha" operator="out"/>
<feColorMatrix type="matrix" values="0 0 0 0 0.834812 0 0 0 0 0.881088 0 0 0 0 0.887399 0 0 0 0.25 0"/>
<feBlend mode="normal" in2="BackgroundImageFix" result="effect1_dropShadow_302_915"/>
<feBlend mode="normal" in="SourceGraphic" in2="effect1_dropShadow_302_915" result="shape"/>
</filter>
<filter id="filter7_d_302_915" x="0" y="0" width="3099" height="264" filterUnits="userSpaceOnUse" color-interpolation-filters="sRGB">
<feFlood flood-opacity="0" result="BackgroundImageFix"/>
<feColorMatrix in="SourceAlpha" type="matrix" values="0 0 0 0 0 0 0 0 0 0 0 0 0 0 0 0 0 0 127 0" result="hardAlpha"/>
<feOffset dy="-2"/>
<feGaussianBlur stdDeviation="13.5"/>
<feComposite in2="hardAlpha" operator="out"/>
<feColorMatrix type="matrix" values="0 0 0 0 0.480376 0 0 0 0 0.63138 0 0 0 0 0.679065 0 0 0 0.25 0"/>
<feBlend mode="normal" in2="BackgroundImageFix" result="effect1_dropShadow_302_915"/>
<feBlend mode="normal" in="SourceGraphic" in2="effect1_dropShadow_302_915" result="shape"/>
</filter>
<filter id="filter8_d_302_915" x="8" y="6" width="714" height="2252" filterUnits="userSpaceOnUse" color-interpolation-filters="sRGB">
<feFlood flood-opacity="0" result="BackgroundImageFix"/>
<feColorMatrix in="SourceAlpha" type="matrix" values="0 0 0 0 0 0 0 0 0 0 0 0 0 0 0 0 0 0 127 0" result="hardAlpha"/>
<feOffset dx="8" dy="4"/>
<feGaussianBlur stdDeviation="13.5"/>
<feComposite in2="hardAlpha" operator="out"/>
<feColorMatrix type="matrix" values="0 0 0 0 0.535649 0 0 0 0 0.618892 0 0 0 0 0.695732 0 0 0 0.25 0"/>
<feBlend mode="normal" in2="BackgroundImageFix" result="effect1_dropShadow_302_915"/>
<feBlend mode="normal" in="SourceGraphic" in2="effect1_dropShadow_302_915" result="shape"/>
</filter>
</defs>
</svg>
